<svg version="1.1" xmlns="http://www.w3.org/2000/svg" xmlns:xlink="http://www.w3.org/1999/xlink" width="500" height="500" viewBox="0 0 1000 1000" enable-background="new 0 0 500 500" xml:space="preserve"><g transform="translate(0,0) scale(2.0,2.0)" width="1000" height="1000"><svg width="500" height="500" viewBox="0 0 740 740" enable-background="new 0 0 500 500" xml:space="preserve"><rect x="0" y="0" width="740" height="740" fill="rgb(255,255,255)" fill-opacity="1.0" /><rect x="261.0" y="81.0" width="18.0" height="18.0" fill="rgb(0,0,0)" fill-opacity="1.0" /><rect x="321.0" y="81.0" width="18.0" height="18.0" fill="rgb(0,0,0)" fill-opacity="1.0" /><rect x="341.0" y="81.0" width="18.0" height="18.0" fill="rgb(0,0,0)" fill-opacity="1.0" /><rect x="381.0" y="81.0" width="18.0" height="18.0" fill="rgb(0,0,0)" fill-opacity="1.0" /><rect x="441.0" y="81.0" width="18.0" height="18.0" fill="rgb(0,0,0)" fill-opacity="1.0" /><rect x="461.0" y="81.0" width="18.0" height="18.0" fill="rgb(0,0,0)" fill-opacity="1.0" /><rect x="261.0" y="101.0" width="18.0" height="18.0" fill="rgb(0,0,0)" fill-opacity="1.0" /><rect x="301.0" y="101.0" width="18.0" height="18.0" fill="rgb(0,0,0)" fill-opacity="1.0" /><rect x="341.0" y="101.0" width="18.0" height="18.0" fill="rgb(0,0,0)" fill-opacity="1.0" /><rect x="361.0" y="101.0" width="18.0" height="18.0" fill="rgb(0,0,0)" fill-opacity="1.0" /><rect x="381.0" y="101.0" width="18.0" height="18.0" fill="rgb(0,0,0)" fill-opacity="1.0" /><rect x="421.0" y="101.0" width="18.0" height="18.0" fill="rgb(0,0,0)" fill-opacity="1.0" /><rect x="441.0" y="101.0" width="18.0" height="18.0" fill="rgb(0,0,0)" fill-opacity="1.0" /><rect x="241.0" y="121.0" width="18.0" height="18.0" fill="rgb(0,0,0)" fill-opacity="1.0" /><rect x="261.0" y="121.0" width="18.0" height="18.0" fill="rgb(0,0,0)" fill-opacity="1.0" /><rect x="321.0" y="121.0" width="18.0" height="18.0" fill="rgb(0,0,0)" fill-opacity="1.0" /><rect x="341.0" y="121.0" width="18.0" height="18.0" fill="rgb(0,0,0)" fill-opacity="1.0" /><rect x="381.0" y="121.0" width="18.0" height="18.0" fill="rgb(0,0,0)" fill-opacity="1.0" /><rect x="421.0" y="121.0" width="18.0" height="18.0" fill="rgb(0,0,0)" fill-opacity="1.0" /><rect x="441.0" y="121.0" width="18.0" height="18.0" fill="rgb(0,0,0)" fill-opacity="1.0" /><rect x="461.0" y="121.0" width="18.0" height="18.0" fill="rgb(0,0,0)" fill-opacity="1.0" /><rect x="481.0" y="121.0" width="18.0" height="18.0" fill="rgb(0,0,0)" fill-opacity="1.0" /><rect x="241.0" y="141.0" width="18.0" height="18.0" fill="rgb(0,0,0)" fill-opacity="1.0" /><rect x="281.0" y="141.0" width="18.0" height="18.0" fill="rgb(0,0,0)" fill-opacity="1.0" /><rect x="301.0" y="141.0" width="18.0" height="18.0" fill="rgb(0,0,0)" fill-opacity="1.0" /><rect x="361.0" y="141.0" width="18.0" height="18.0" fill="rgb(0,0,0)" fill-opacity="1.0" /><rect x="381.0" y="141.0" width="18.0" height="18.0" fill="rgb(0,0,0)" fill-opacity="1.0" /><rect x="401.0" y="141.0" width="18.0" height="18.0" fill="rgb(0,0,0)" fill-opacity="1.0" /><rect x="421.0" y="141.0" width="18.0" height="18.0" fill="rgb(0,0,0)" fill-opacity="1.0" /><rect x="481.0" y="141.0" width="18.0" height="18.0" fill="rgb(0,0,0)" fill-opacity="1.0" /><rect x="241.0" y="161.0" width="18.0" height="18.0" fill="rgb(0,0,0)" fill-opacity="1.0" /><rect x="261.0" y="161.0" width="18.0" height="18.0" fill="rgb(0,0,0)" fill-opacity="1.0" /><rect x="281.0" y="161.0" width="18.0" height="18.0" fill="rgb(0,0,0)" fill-opacity="1.0" /><rect x="301.0" y="161.0" width="18.0" height="18.0" fill="rgb(0,0,0)" fill-opacity="1.0" /><rect x="401.0" y="161.0" width="18.0" height="18.0" fill="rgb(0,0,0)" fill-opacity="1.0" /><rect x="441.0" y="161.0" width="18.0" height="18.0" fill="rgb(0,0,0)" fill-opacity="1.0" /><rect x="481.0" y="161.0" width="18.0" height="18.0" fill="rgb(0,0,0)" fill-opacity="1.0" /><rect x="241.0" y="181.0" width="18.0" height="18.0" fill="rgb(0,0,0)" fill-opacity="1.0" /><rect x="261.0" y="181.0" width="18.0" height="18.0" fill="rgb(0,0,0)" fill-opacity="1.0" /><rect x="281.0" y="181.0" width="18.0" height="18.0" fill="rgb(0,0,0)" fill-opacity="1.0" /><rect x="301.0" y="181.0" width="18.0" height="18.0" fill="rgb(0,0,0)" fill-opacity="1.0" /><rect x="321.0" y="181.0" width="18.0" height="18.0" fill="rgb(0,0,0)" fill-opacity="1.0" /><rect x="421.0" y="181.0" width="18.0" height="18.0" fill="rgb(0,0,0)" fill-opacity="1.0" /><rect x="481.0" y="181.0" width="18.0" height="18.0" fill="rgb(0,0,0)" fill-opacity="1.0" /><rect x="241.0" y="201.0" width="18.0" height="18.0" fill="rgb(0,0,0)" fill-opacity="1.0" /><rect x="281.0" y="201.0" width="18.0" height="18.0" fill="rgb(0,0,0)" fill-opacity="1.0" /><rect x="321.0" y="201.0" width="18.0" height="18.0" fill="rgb(0,0,0)" fill-opacity="1.0" /><rect x="361.0" y="201.0" width="18.0" height="18.0" fill="rgb(0,0,0)" fill-opacity="1.0" /><rect x="401.0" y="201.0" width="18.0" height="18.0" fill="rgb(0,0,0)" fill-opacity="1.0" /><rect x="441.0" y="201.0" width="18.0" height="18.0" fill="rgb(0,0,0)" fill-opacity="1.0" /><rect x="481.0" y="201.0" width="18.0" height="18.0" fill="rgb(0,0,0)" fill-opacity="1.0" /><rect x="241.0" y="221.0" width="18.0" height="18.0" fill="rgb(0,0,0)" fill-opacity="1.0" /><rect x="261.0" y="221.0" width="18.0" height="18.0" fill="rgb(0,0,0)" fill-opacity="1.0" /><rect x="281.0" y="221.0" width="18.0" height="18.0" fill="rgb(0,0,0)" fill-opacity="1.0" /><rect x="361.0" y="221.0" width="18.0" height="18.0" fill="rgb(0,0,0)" fill-opacity="1.0" /><rect x="421.0" y="221.0" width="18.0" height="18.0" fill="rgb(0,0,0)" fill-opacity="1.0" /><rect x="441.0" y="221.0" width="18.0" height="18.0" fill="rgb(0,0,0)" fill-opacity="1.0" /><rect x="461.0" y="221.0" width="18.0" height="18.0" fill="rgb(0,0,0)" fill-opacity="1.0" /><rect x="481.0" y="221.0" width="18.0" height="18.0" fill="rgb(0,0,0)" fill-opacity="1.0" /><rect x="81.0" y="241.0" width="18.0" height="18.0" fill="rgb(0,0,0)" fill-opacity="1.0" /><rect x="121.0" y="241.0" width="18.0" height="18.0" fill="rgb(0,0,0)" fill-opacity="1.0" /><rect x="141.0" y="241.0" width="18.0" height="18.0" fill="rgb(0,0,0)" fill-opacity="1.0" /><rect x="161.0" y="241.0" width="18.0" height="18.0" fill="rgb(0,0,0)" fill-opacity="1.0" /><rect x="181.0" y="241.0" width="18.0" height="18.0" fill="rgb(0,0,0)" fill-opacity="1.0" /><rect x="201.0" y="241.0" width="18.0" height="18.0" fill="rgb(0,0,0)" fill-opacity="1.0" /><rect x="261.0" y="241.0" width="18.0" height="18.0" fill="rgb(0,0,0)" fill-opacity="1.0" /><rect x="281.0" y="241.0" width="18.0" height="18.0" fill="rgb(0,0,0)" fill-opacity="1.0" /><rect x="321.0" y="241.0" width="18.0" height="18.0" fill="rgb(0,0,0)" fill-opacity="1.0" /><rect x="381.0" y="241.0" width="18.0" height="18.0" fill="rgb(0,0,0)" fill-opacity="1.0" /><rect x="401.0" y="241.0" width="18.0" height="18.0" fill="rgb(0,0,0)" fill-opacity="1.0" /><rect x="441.0" y="241.0" width="18.0" height="18.0" fill="rgb(0,0,0)" fill-opacity="1.0" /><rect x="521.0" y="241.0" width="18.0" height="18.0" fill="rgb(0,0,0)" fill-opacity="1.0" /><rect x="541.0" y="241.0" width="18.0" height="18.0" fill="rgb(0,0,0)" fill-opacity="1.0" /><rect x="561.0" y="241.0" width="18.0" height="18.0" fill="rgb(0,0,0)" fill-opacity="1.0" /><rect x="581.0" y="241.0" width="18.0" height="18.0" fill="rgb(0,0,0)" fill-opacity="1.0" /><rect x="601.0" y="241.0" width="18.0" height="18.0" fill="rgb(0,0,0)" fill-opacity="1.0" /><rect x="121.0" y="261.0" width="18.0" height="18.0" fill="rgb(0,0,0)" fill-opacity="1.0" /><rect x="141.0" y="261.0" width="18.0" height="18.0" fill="rgb(0,0,0)" fill-opacity="1.0" /><rect x="161.0" y="261.0" width="18.0" height="18.0" fill="rgb(0,0,0)" fill-opacity="1.0" /><rect x="181.0" y="261.0" width="18.0" height="18.0" fill="rgb(0,0,0)" fill-opacity="1.0" /><rect x="241.0" y="261.0" width="18.0" height="18.0" fill="rgb(0,0,0)" fill-opacity="1.0" /><rect x="261.0" y="261.0" width="18.0" height="18.0" fill="rgb(0,0,0)" fill-opacity="1.0" /><rect x="321.0" y="261.0" width="18.0" height="18.0" fill="rgb(0,0,0)" fill-opacity="1.0" /><rect x="341.0" y="261.0" width="18.0" height="18.0" fill="rgb(0,0,0)" fill-opacity="1.0" /><rect x="361.0" y="261.0" width="18.0" height="18.0" fill="rgb(0,0,0)" fill-opacity="1.0" /><rect x="581.0" y="261.0" width="18.0" height="18.0" fill="rgb(0,0,0)" fill-opacity="1.0" /><rect x="621.0" y="261.0" width="18.0" height="18.0" fill="rgb(0,0,0)" fill-opacity="1.0" /><rect x="101.0" y="281.0" width="18.0" height="18.0" fill="rgb(0,0,0)" fill-opacity="1.0" /><rect x="161.0" y="281.0" width="18.0" height="18.0" fill="rgb(0,0,0)" fill-opacity="1.0" /><rect x="201.0" y="281.0" width="18.0" height="18.0" fill="rgb(0,0,0)" fill-opacity="1.0" /><rect x="221.0" y="281.0" width="18.0" height="18.0" fill="rgb(0,0,0)" fill-opacity="1.0" /><rect x="241.0" y="281.0" width="18.0" height="18.0" fill="rgb(0,0,0)" fill-opacity="1.0" /><rect x="261.0" y="281.0" width="18.0" height="18.0" fill="rgb(0,0,0)" fill-opacity="1.0" /><rect x="281.0" y="281.0" width="18.0" height="18.0" fill="rgb(0,0,0)" fill-opacity="1.0" /><rect x="321.0" y="281.0" width="18.0" height="18.0" fill="rgb(0,0,0)" fill-opacity="1.0" /><rect x="341.0" y="281.0" width="18.0" height="18.0" fill="rgb(0,0,0)" fill-opacity="1.0" /><rect x="361.0" y="281.0" width="18.0" height="18.0" fill="rgb(0,0,0)" fill-opacity="1.0" /><rect x="381.0" y="281.0" width="18.0" height="18.0" fill="rgb(0,0,0)" fill-opacity="1.0" /><rect x="421.0" y="281.0" width="18.0" height="18.0" fill="rgb(0,0,0)" fill-opacity="1.0" /><rect x="461.0" y="281.0" width="18.0" height="18.0" fill="rgb(0,0,0)" fill-opacity="1.0" /><rect x="541.0" y="281.0" width="18.0" height="18.0" fill="rgb(0,0,0)" fill-opacity="1.0" /><rect x="581.0" y="281.0" width="18.0" height="18.0" fill="rgb(0,0,0)" fill-opacity="1.0" /><rect x="601.0" y="281.0" width="18.0" height="18.0" fill="rgb(0,0,0)" fill-opacity="1.0" /><rect x="81.0" y="301.0" width="18.0" height="18.0" fill="rgb(0,0,0)" fill-opacity="1.0" /><rect x="161.0" y="301.0" width="18.0" height="18.0" fill="rgb(0,0,0)" fill-opacity="1.0" /><rect x="221.0" y="301.0" width="18.0" height="18.0" fill="rgb(0,0,0)" fill-opacity="1.0" /><rect x="281.0" y="301.0" width="18.0" height="18.0" fill="rgb(0,0,0)" fill-opacity="1.0" /><rect x="301.0" y="301.0" width="18.0" height="18.0" fill="rgb(0,0,0)" fill-opacity="1.0" /><rect x="321.0" y="301.0" width="18.0" height="18.0" fill="rgb(0,0,0)" fill-opacity="1.0" /><rect x="341.0" y="301.0" width="18.0" height="18.0" fill="rgb(0,0,0)" fill-opacity="1.0" /><rect x="401.0" y="301.0" width="18.0" height="18.0" fill="rgb(0,0,0)" fill-opacity="1.0" /><rect x="421.0" y="301.0" width="18.0" height="18.0" fill="rgb(0,0,0)" fill-opacity="1.0" /><rect x="441.0" y="301.0" width="18.0" height="18.0" fill="rgb(0,0,0)" fill-opacity="1.0" /><rect x="461.0" y="301.0" width="18.0" height="18.0" fill="rgb(0,0,0)" fill-opacity="1.0" /><rect x="481.0" y="301.0" width="18.0" height="18.0" fill="rgb(0,0,0)" fill-opacity="1.0" /><rect x="501.0" y="301.0" width="18.0" height="18.0" fill="rgb(0,0,0)" fill-opacity="1.0" /><rect x="521.0" y="301.0" width="18.0" height="18.0" fill="rgb(0,0,0)" fill-opacity="1.0" /><rect x="541.0" y="301.0" width="18.0" height="18.0" fill="rgb(0,0,0)" fill-opacity="1.0" /><rect x="561.0" y="301.0" width="18.0" height="18.0" fill="rgb(0,0,0)" fill-opacity="1.0" /><rect x="581.0" y="301.0" width="18.0" height="18.0" fill="rgb(0,0,0)" fill-opacity="1.0" /><rect x="641.0" y="301.0" width="18.0" height="18.0" fill="rgb(0,0,0)" fill-opacity="1.0" /><rect x="81.0" y="321.0" width="18.0" height="18.0" fill="rgb(0,0,0)" fill-opacity="1.0" /><rect x="141.0" y="321.0" width="18.0" height="18.0" fill="rgb(0,0,0)" fill-opacity="1.0" /><rect x="201.0" y="321.0" width="18.0" height="18.0" fill="rgb(0,0,0)" fill-opacity="1.0" /><rect x="221.0" y="321.0" width="18.0" height="18.0" fill="rgb(0,0,0)" fill-opacity="1.0" /><rect x="241.0" y="321.0" width="18.0" height="18.0" fill="rgb(0,0,0)" fill-opacity="1.0" /><rect x="261.0" y="321.0" width="18.0" height="18.0" fill="rgb(0,0,0)" fill-opacity="1.0" /><rect x="281.0" y="321.0" width="18.0" height="18.0" fill="rgb(0,0,0)" fill-opacity="1.0" /><rect x="361.0" y="321.0" width="18.0" height="18.0" fill="rgb(0,0,0)" fill-opacity="1.0" /><rect x="381.0" y="321.0" width="18.0" height="18.0" fill="rgb(0,0,0)" fill-opacity="1.0" /><rect x="421.0" y="321.0" width="18.0" height="18.0" fill="rgb(0,0,0)" fill-opacity="1.0" /><rect x="521.0" y="321.0" width="18.0" height="18.0" fill="rgb(0,0,0)" fill-opacity="1.0" /><rect x="81.0" y="341.0" width="18.0" height="18.0" fill="rgb(0,0,0)" fill-opacity="1.0" /><rect x="141.0" y="341.0" width="18.0" height="18.0" fill="rgb(0,0,0)" fill-opacity="1.0" /><rect x="381.0" y="341.0" width="18.0" height="18.0" fill="rgb(0,0,0)" fill-opacity="1.0" /><rect x="401.0" y="341.0" width="18.0" height="18.0" fill="rgb(0,0,0)" fill-opacity="1.0" /><rect x="481.0" y="341.0" width="18.0" height="18.0" fill="rgb(0,0,0)" fill-opacity="1.0" /><rect x="581.0" y="341.0" width="18.0" height="18.0" fill="rgb(0,0,0)" fill-opacity="1.0" /><rect x="621.0" y="341.0" width="18.0" height="18.0" fill="rgb(0,0,0)" fill-opacity="1.0" /><rect x="81.0" y="361.0" width="18.0" height="18.0" fill="rgb(0,0,0)" fill-opacity="1.0" /><rect x="101.0" y="361.0" width="18.0" height="18.0" fill="rgb(0,0,0)" fill-opacity="1.0" /><rect x="121.0" y="361.0" width="18.0" height="18.0" fill="rgb(0,0,0)" fill-opacity="1.0" /><rect x="181.0" y="361.0" width="18.0" height="18.0" fill="rgb(0,0,0)" fill-opacity="1.0" /><rect x="201.0" y="361.0" width="18.0" height="18.0" fill="rgb(0,0,0)" fill-opacity="1.0" /><rect x="281.0" y="361.0" width="18.0" height="18.0" fill="rgb(0,0,0)" fill-opacity="1.0" /><rect x="421.0" y="361.0" width="18.0" height="18.0" fill="rgb(0,0,0)" fill-opacity="1.0" /><rect x="441.0" y="361.0" width="18.0" height="18.0" fill="rgb(0,0,0)" fill-opacity="1.0" /><rect x="481.0" y="361.0" width="18.0" height="18.0" fill="rgb(0,0,0)" fill-opacity="1.0" /><rect x="541.0" y="361.0" width="18.0" height="18.0" fill="rgb(0,0,0)" fill-opacity="1.0" /><rect x="581.0" y="361.0" width="18.0" height="18.0" fill="rgb(0,0,0)" fill-opacity="1.0" /><rect x="601.0" y="361.0" width="18.0" height="18.0" fill="rgb(0,0,0)" fill-opacity="1.0" /><rect x="621.0" y="361.0" width="18.0" height="18.0" fill="rgb(0,0,0)" fill-opacity="1.0" /><rect x="641.0" y="361.0" width="18.0" height="18.0" fill="rgb(0,0,0)" fill-opacity="1.0" /><rect x="121.0" y="381.0" width="18.0" height="18.0" fill="rgb(0,0,0)" fill-opacity="1.0" /><rect x="141.0" y="381.0" width="18.0" height="18.0" fill="rgb(0,0,0)" fill-opacity="1.0" /><rect x="161.0" y="381.0" width="18.0" height="18.0" fill="rgb(0,0,0)" fill-opacity="1.0" /><rect x="181.0" y="381.0" width="18.0" height="18.0" fill="rgb(0,0,0)" fill-opacity="1.0" /><rect x="221.0" y="381.0" width="18.0" height="18.0" fill="rgb(0,0,0)" fill-opacity="1.0" /><rect x="241.0" y="381.0" width="18.0" height="18.0" fill="rgb(0,0,0)" fill-opacity="1.0" /><rect x="281.0" y="381.0" width="18.0" height="18.0" fill="rgb(0,0,0)" fill-opacity="1.0" /><rect x="301.0" y="381.0" width="18.0" height="18.0" fill="rgb(0,0,0)" fill-opacity="1.0" /><rect x="361.0" y="381.0" width="18.0" height="18.0" fill="rgb(0,0,0)" fill-opacity="1.0" /><rect x="401.0" y="381.0" width="18.0" height="18.0" fill="rgb(0,0,0)" fill-opacity="1.0" /><rect x="421.0" y="381.0" width="18.0" height="18.0" fill="rgb(0,0,0)" fill-opacity="1.0" /><rect x="441.0" y="381.0" width="18.0" height="18.0" fill="rgb(0,0,0)" fill-opacity="1.0" /><rect x="461.0" y="381.0" width="18.0" height="18.0" fill="rgb(0,0,0)" fill-opacity="1.0" /><rect x="481.0" y="381.0" width="18.0" height="18.0" fill="rgb(0,0,0)" fill-opacity="1.0" /><rect x="501.0" y="381.0" width="18.0" height="18.0" fill="rgb(0,0,0)" fill-opacity="1.0" /><rect x="521.0" y="381.0" width="18.0" height="18.0" fill="rgb(0,0,0)" fill-opacity="1.0" /><rect x="541.0" y="381.0" width="18.0" height="18.0" fill="rgb(0,0,0)" fill-opacity="1.0" /><rect x="561.0" y="381.0" width="18.0" height="18.0" fill="rgb(0,0,0)" fill-opacity="1.0" /><rect x="621.0" y="381.0" width="18.0" height="18.0" fill="rgb(0,0,0)" fill-opacity="1.0" /><rect x="641.0" y="381.0" width="18.0" height="18.0" fill="rgb(0,0,0)" fill-opacity="1.0" /><rect x="81.0" y="401.0" width="18.0" height="18.0" fill="rgb(0,0,0)" fill-opacity="1.0" /><rect x="101.0" y="401.0" width="18.0" height="18.0" fill="rgb(0,0,0)" fill-opacity="1.0" /><rect x="141.0" y="401.0" width="18.0" height="18.0" fill="rgb(0,0,0)" fill-opacity="1.0" /><rect x="181.0" y="401.0" width="18.0" height="18.0" fill="rgb(0,0,0)" fill-opacity="1.0" /><rect x="201.0" y="401.0" width="18.0" height="18.0" fill="rgb(0,0,0)" fill-opacity="1.0" /><rect x="221.0" y="401.0" width="18.0" height="18.0" fill="rgb(0,0,0)" fill-opacity="1.0" /><rect x="241.0" y="401.0" width="18.0" height="18.0" fill="rgb(0,0,0)" fill-opacity="1.0" /><rect x="381.0" y="401.0" width="18.0" height="18.0" fill="rgb(0,0,0)" fill-opacity="1.0" /><rect x="401.0" y="401.0" width="18.0" height="18.0" fill="rgb(0,0,0)" fill-opacity="1.0" /><rect x="421.0" y="401.0" width="18.0" height="18.0" fill="rgb(0,0,0)" fill-opacity="1.0" /><rect x="481.0" y="401.0" width="18.0" height="18.0" fill="rgb(0,0,0)" fill-opacity="1.0" /><rect x="81.0" y="421.0" width="18.0" height="18.0" fill="rgb(0,0,0)" fill-opacity="1.0" /><rect x="101.0" y="421.0" width="18.0" height="18.0" fill="rgb(0,0,0)" fill-opacity="1.0" /><rect x="121.0" y="421.0" width="18.0" height="18.0" fill="rgb(0,0,0)" fill-opacity="1.0" /><rect x="161.0" y="421.0" width="18.0" height="18.0" fill="rgb(0,0,0)" fill-opacity="1.0" /><rect x="181.0" y="421.0" width="18.0" height="18.0" fill="rgb(0,0,0)" fill-opacity="1.0" /><rect x="221.0" y="421.0" width="18.0" height="18.0" fill="rgb(0,0,0)" fill-opacity="1.0" /><rect x="281.0" y="421.0" width="18.0" height="18.0" fill="rgb(0,0,0)" fill-opacity="1.0" /><rect x="321.0" y="421.0" width="18.0" height="18.0" fill="rgb(0,0,0)" fill-opacity="1.0" /><rect x="341.0" y="421.0" width="18.0" height="18.0" fill="rgb(0,0,0)" fill-opacity="1.0" /><rect x="361.0" y="421.0" width="18.0" height="18.0" fill="rgb(0,0,0)" fill-opacity="1.0" /><rect x="381.0" y="421.0" width="18.0" height="18.0" fill="rgb(0,0,0)" fill-opacity="1.0" /><rect x="561.0" y="421.0" width="18.0" height="18.0" fill="rgb(0,0,0)" fill-opacity="1.0" /><rect x="581.0" y="421.0" width="18.0" height="18.0" fill="rgb(0,0,0)" fill-opacity="1.0" /><rect x="621.0" y="421.0" width="18.0" height="18.0" fill="rgb(0,0,0)" fill-opacity="1.0" /><rect x="641.0" y="421.0" width="18.0" height="18.0" fill="rgb(0,0,0)" fill-opacity="1.0" /><rect x="81.0" y="441.0" width="18.0" height="18.0" fill="rgb(0,0,0)" fill-opacity="1.0" /><rect x="181.0" y="441.0" width="18.0" height="18.0" fill="rgb(0,0,0)" fill-opacity="1.0" /><rect x="201.0" y="441.0" width="18.0" height="18.0" fill="rgb(0,0,0)" fill-opacity="1.0" /><rect x="301.0" y="441.0" width="18.0" height="18.0" fill="rgb(0,0,0)" fill-opacity="1.0" /><rect x="341.0" y="441.0" width="18.0" height="18.0" fill="rgb(0,0,0)" fill-opacity="1.0" /><rect x="361.0" y="441.0" width="18.0" height="18.0" fill="rgb(0,0,0)" fill-opacity="1.0" /><rect x="381.0" y="441.0" width="18.0" height="18.0" fill="rgb(0,0,0)" fill-opacity="1.0" /><rect x="421.0" y="441.0" width="18.0" height="18.0" fill="rgb(0,0,0)" fill-opacity="1.0" /><rect x="461.0" y="441.0" width="18.0" height="18.0" fill="rgb(0,0,0)" fill-opacity="1.0" /><rect x="541.0" y="441.0" width="18.0" height="18.0" fill="rgb(0,0,0)" fill-opacity="1.0" /><rect x="581.0" y="441.0" width="18.0" height="18.0" fill="rgb(0,0,0)" fill-opacity="1.0" /><rect x="601.0" y="441.0" width="18.0" height="18.0" fill="rgb(0,0,0)" fill-opacity="1.0" /><rect x="621.0" y="441.0" width="18.0" height="18.0" fill="rgb(0,0,0)" fill-opacity="1.0" /><rect x="81.0" y="461.0" width="18.0" height="18.0" fill="rgb(0,0,0)" fill-opacity="1.0" /><rect x="141.0" y="461.0" width="18.0" height="18.0" fill="rgb(0,0,0)" fill-opacity="1.0" /><rect x="161.0" y="461.0" width="18.0" height="18.0" fill="rgb(0,0,0)" fill-opacity="1.0" /><rect x="321.0" y="461.0" width="18.0" height="18.0" fill="rgb(0,0,0)" fill-opacity="1.0" /><rect x="341.0" y="461.0" width="18.0" height="18.0" fill="rgb(0,0,0)" fill-opacity="1.0" /><rect x="401.0" y="461.0" width="18.0" height="18.0" fill="rgb(0,0,0)" fill-opacity="1.0" /><rect x="461.0" y="461.0" width="18.0" height="18.0" fill="rgb(0,0,0)" fill-opacity="1.0" /><rect x="481.0" y="461.0" width="18.0" height="18.0" fill="rgb(0,0,0)" fill-opacity="1.0" /><rect x="501.0" y="461.0" width="18.0" height="18.0" fill="rgb(0,0,0)" fill-opacity="1.0" /><rect x="521.0" y="461.0" width="18.0" height="18.0" fill="rgb(0,0,0)" fill-opacity="1.0" /><rect x="541.0" y="461.0" width="18.0" height="18.0" fill="rgb(0,0,0)" fill-opacity="1.0" /><rect x="561.0" y="461.0" width="18.0" height="18.0" fill="rgb(0,0,0)" fill-opacity="1.0" /><rect x="621.0" y="461.0" width="18.0" height="18.0" fill="rgb(0,0,0)" fill-opacity="1.0" /><rect x="641.0" y="461.0" width="18.0" height="18.0" fill="rgb(0,0,0)" fill-opacity="1.0" /><rect x="81.0" y="481.0" width="18.0" height="18.0" fill="rgb(0,0,0)" fill-opacity="1.0" /><rect x="121.0" y="481.0" width="18.0" height="18.0" fill="rgb(0,0,0)" fill-opacity="1.0" /><rect x="181.0" y="481.0" width="18.0" height="18.0" fill="rgb(0,0,0)" fill-opacity="1.0" /><rect x="201.0" y="481.0" width="18.0" height="18.0" fill="rgb(0,0,0)" fill-opacity="1.0" /><rect x="241.0" y="481.0" width="18.0" height="18.0" fill="rgb(0,0,0)" fill-opacity="1.0" /><rect x="281.0" y="481.0" width="18.0" height="18.0" fill="rgb(0,0,0)" fill-opacity="1.0" /><rect x="301.0" y="481.0" width="18.0" height="18.0" fill="rgb(0,0,0)" fill-opacity="1.0" /><rect x="361.0" y="481.0" width="18.0" height="18.0" fill="rgb(0,0,0)" fill-opacity="1.0" /><rect x="381.0" y="481.0" width="18.0" height="18.0" fill="rgb(0,0,0)" fill-opacity="1.0" /><rect x="401.0" y="481.0" width="18.0" height="18.0" fill="rgb(0,0,0)" fill-opacity="1.0" /><rect x="481.0" y="481.0" width="18.0" height="18.0" fill="rgb(0,0,0)" fill-opacity="1.0" /><rect x="501.0" y="481.0" width="18.0" height="18.0" fill="rgb(0,0,0)" fill-opacity="1.0" /><rect x="521.0" y="481.0" width="18.0" height="18.0" fill="rgb(0,0,0)" fill-opacity="1.0" /><rect x="541.0" y="481.0" width="18.0" height="18.0" fill="rgb(0,0,0)" fill-opacity="1.0" /><rect x="561.0" y="481.0" width="18.0" height="18.0" fill="rgb(0,0,0)" fill-opacity="1.0" /><rect x="581.0" y="481.0" width="18.0" height="18.0" fill="rgb(0,0,0)" fill-opacity="1.0" /><rect x="601.0" y="481.0" width="18.0" height="18.0" fill="rgb(0,0,0)" fill-opacity="1.0" /><rect x="621.0" y="481.0" width="18.0" height="18.0" fill="rgb(0,0,0)" fill-opacity="1.0" /><rect x="241.0" y="501.0" width="18.0" height="18.0" fill="rgb(0,0,0)" fill-opacity="1.0" /><rect x="261.0" y="501.0" width="18.0" height="18.0" fill="rgb(0,0,0)" fill-opacity="1.0" /><rect x="301.0" y="501.0" width="18.0" height="18.0" fill="rgb(0,0,0)" fill-opacity="1.0" /><rect x="441.0" y="501.0" width="18.0" height="18.0" fill="rgb(0,0,0)" fill-opacity="1.0" /><rect x="461.0" y="501.0" width="18.0" height="18.0" fill="rgb(0,0,0)" fill-opacity="1.0" /><rect x="481.0" y="501.0" width="18.0" height="18.0" fill="rgb(0,0,0)" fill-opacity="1.0" /><rect x="561.0" y="501.0" width="18.0" height="18.0" fill="rgb(0,0,0)" fill-opacity="1.0" /><rect x="621.0" y="501.0" width="18.0" height="18.0" fill="rgb(0,0,0)" fill-opacity="1.0" /><rect x="281.0" y="521.0" width="18.0" height="18.0" fill="rgb(0,0,0)" fill-opacity="1.0" /><rect x="301.0" y="521.0" width="18.0" height="18.0" fill="rgb(0,0,0)" fill-opacity="1.0" /><rect x="381.0" y="521.0" width="18.0" height="18.0" fill="rgb(0,0,0)" fill-opacity="1.0" /><rect x="421.0" y="521.0" width="18.0" height="18.0" fill="rgb(0,0,0)" fill-opacity="1.0" /><rect x="461.0" y="521.0" width="18.0" height="18.0" fill="rgb(0,0,0)" fill-opacity="1.0" /><rect x="481.0" y="521.0" width="18.0" height="18.0" fill="rgb(0,0,0)" fill-opacity="1.0" /><rect x="521.0" y="521.0" width="18.0" height="18.0" fill="rgb(0,0,0)" fill-opacity="1.0" /><rect x="561.0" y="521.0" width="18.0" height="18.0" fill="rgb(0,0,0)" fill-opacity="1.0" /><rect x="581.0" y="521.0" width="18.0" height="18.0" fill="rgb(0,0,0)" fill-opacity="1.0" /><rect x="601.0" y="521.0" width="18.0" height="18.0" fill="rgb(0,0,0)" fill-opacity="1.0" /><rect x="241.0" y="541.0" width="18.0" height="18.0" fill="rgb(0,0,0)" fill-opacity="1.0" /><rect x="321.0" y="541.0" width="18.0" height="18.0" fill="rgb(0,0,0)" fill-opacity="1.0" /><rect x="361.0" y="541.0" width="18.0" height="18.0" fill="rgb(0,0,0)" fill-opacity="1.0" /><rect x="401.0" y="541.0" width="18.0" height="18.0" fill="rgb(0,0,0)" fill-opacity="1.0" /><rect x="441.0" y="541.0" width="18.0" height="18.0" fill="rgb(0,0,0)" fill-opacity="1.0" /><rect x="461.0" y="541.0" width="18.0" height="18.0" fill="rgb(0,0,0)" fill-opacity="1.0" /><rect x="481.0" y="541.0" width="18.0" height="18.0" fill="rgb(0,0,0)" fill-opacity="1.0" /><rect x="561.0" y="541.0" width="18.0" height="18.0" fill="rgb(0,0,0)" fill-opacity="1.0" /><rect x="601.0" y="541.0" width="18.0" height="18.0" fill="rgb(0,0,0)" fill-opacity="1.0" /><rect x="621.0" y="541.0" width="18.0" height="18.0" fill="rgb(0,0,0)" fill-opacity="1.0" /><rect x="641.0" y="541.0" width="18.0" height="18.0" fill="rgb(0,0,0)" fill-opacity="1.0" /><rect x="241.0" y="561.0" width="18.0" height="18.0" fill="rgb(0,0,0)" fill-opacity="1.0" /><rect x="301.0" y="561.0" width="18.0" height="18.0" fill="rgb(0,0,0)" fill-opacity="1.0" /><rect x="381.0" y="561.0" width="18.0" height="18.0" fill="rgb(0,0,0)" fill-opacity="1.0" /><rect x="401.0" y="561.0" width="18.0" height="18.0" fill="rgb(0,0,0)" fill-opacity="1.0" /><rect x="421.0" y="561.0" width="18.0" height="18.0" fill="rgb(0,0,0)" fill-opacity="1.0" /><rect x="441.0" y="561.0" width="18.0" height="18.0" fill="rgb(0,0,0)" fill-opacity="1.0" /><rect x="481.0" y="561.0" width="18.0" height="18.0" fill="rgb(0,0,0)" fill-opacity="1.0" /><rect x="501.0" y="561.0" width="18.0" height="18.0" fill="rgb(0,0,0)" fill-opacity="1.0" /><rect x="521.0" y="561.0" width="18.0" height="18.0" fill="rgb(0,0,0)" fill-opacity="1.0" /><rect x="541.0" y="561.0" width="18.0" height="18.0" fill="rgb(0,0,0)" fill-opacity="1.0" /><rect x="561.0" y="561.0" width="18.0" height="18.0" fill="rgb(0,0,0)" fill-opacity="1.0" /><rect x="601.0" y="561.0" width="18.0" height="18.0" fill="rgb(0,0,0)" fill-opacity="1.0" /><rect x="621.0" y="561.0" width="18.0" height="18.0" fill="rgb(0,0,0)" fill-opacity="1.0" /><rect x="641.0" y="561.0" width="18.0" height="18.0" fill="rgb(0,0,0)" fill-opacity="1.0" /><rect x="241.0" y="581.0" width="18.0" height="18.0" fill="rgb(0,0,0)" fill-opacity="1.0" /><rect x="361.0" y="581.0" width="18.0" height="18.0" fill="rgb(0,0,0)" fill-opacity="1.0" /><rect x="381.0" y="581.0" width="18.0" height="18.0" fill="rgb(0,0,0)" fill-opacity="1.0" /><rect x="401.0" y="581.0" width="18.0" height="18.0" fill="rgb(0,0,0)" fill-opacity="1.0" /><rect x="481.0" y="581.0" width="18.0" height="18.0" fill="rgb(0,0,0)" fill-opacity="1.0" /><rect x="501.0" y="581.0" width="18.0" height="18.0" fill="rgb(0,0,0)" fill-opacity="1.0" /><rect x="521.0" y="581.0" width="18.0" height="18.0" fill="rgb(0,0,0)" fill-opacity="1.0" /><rect x="541.0" y="581.0" width="18.0" height="18.0" fill="rgb(0,0,0)" fill-opacity="1.0" /><rect x="241.0" y="601.0" width="18.0" height="18.0" fill="rgb(0,0,0)" fill-opacity="1.0" /><rect x="281.0" y="601.0" width="18.0" height="18.0" fill="rgb(0,0,0)" fill-opacity="1.0" /><rect x="301.0" y="601.0" width="18.0" height="18.0" fill="rgb(0,0,0)" fill-opacity="1.0" /><rect x="341.0" y="601.0" width="18.0" height="18.0" fill="rgb(0,0,0)" fill-opacity="1.0" /><rect x="421.0" y="601.0" width="18.0" height="18.0" fill="rgb(0,0,0)" fill-opacity="1.0" /><rect x="461.0" y="601.0" width="18.0" height="18.0" fill="rgb(0,0,0)" fill-opacity="1.0" /><rect x="521.0" y="601.0" width="18.0" height="18.0" fill="rgb(0,0,0)" fill-opacity="1.0" /><rect x="541.0" y="601.0" width="18.0" height="18.0" fill="rgb(0,0,0)" fill-opacity="1.0" /><rect x="601.0" y="601.0" width="18.0" height="18.0" fill="rgb(0,0,0)" fill-opacity="1.0" /><rect x="621.0" y="601.0" width="18.0" height="18.0" fill="rgb(0,0,0)" fill-opacity="1.0" /><rect x="341.0" y="621.0" width="18.0" height="18.0" fill="rgb(0,0,0)" fill-opacity="1.0" /><rect x="361.0" y="621.0" width="18.0" height="18.0" fill="rgb(0,0,0)" fill-opacity="1.0" /><rect x="481.0" y="621.0" width="18.0" height="18.0" fill="rgb(0,0,0)" fill-opacity="1.0" /><rect x="501.0" y="621.0" width="18.0" height="18.0" fill="rgb(0,0,0)" fill-opacity="1.0" /><rect x="581.0" y="621.0" width="18.0" height="18.0" fill="rgb(0,0,0)" fill-opacity="1.0" /><rect x="601.0" y="621.0" width="18.0" height="18.0" fill="rgb(0,0,0)" fill-opacity="1.0" /><rect x="641.0" y="621.0" width="18.0" height="18.0" fill="rgb(0,0,0)" fill-opacity="1.0" /><rect x="241.0" y="641.0" width="18.0" height="18.0" fill="rgb(0,0,0)" fill-opacity="1.0" /><rect x="321.0" y="641.0" width="18.0" height="18.0" fill="rgb(0,0,0)" fill-opacity="1.0" /><rect x="341.0" y="641.0" width="18.0" height="18.0" fill="rgb(0,0,0)" fill-opacity="1.0" /><rect x="381.0" y="641.0" width="18.0" height="18.0" fill="rgb(0,0,0)" fill-opacity="1.0" /><rect x="401.0" y="641.0" width="18.0" height="18.0" fill="rgb(0,0,0)" fill-opacity="1.0" /><rect x="421.0" y="641.0" width="18.0" height="18.0" fill="rgb(0,0,0)" fill-opacity="1.0" /><rect x="441.0" y="641.0" width="18.0" height="18.0" fill="rgb(0,0,0)" fill-opacity="1.0" /><rect x="461.0" y="641.0" width="18.0" height="18.0" fill="rgb(0,0,0)" fill-opacity="1.0" /><rect x="481.0" y="641.0" width="18.0" height="18.0" fill="rgb(0,0,0)" fill-opacity="1.0" /><rect x="501.0" y="641.0" width="18.0" height="18.0" fill="rgb(0,0,0)" fill-opacity="1.0" /><rect x="521.0" y="641.0" width="18.0" height="18.0" fill="rgb(0,0,0)" fill-opacity="1.0" /><rect x="561.0" y="641.0" width="18.0" height="18.0" fill="rgb(0,0,0)" fill-opacity="1.0" /><rect x="581.0" y="641.0" width="18.0" height="18.0" fill="rgb(0,0,0)" fill-opacity="1.0" /><rect x="601.0" y="641.0" width="18.0" height="18.0" fill="rgb(0,0,0)" fill-opacity="1.0" /><rect x="80" y="80" width="140" height="140" fill="rgb(0,0,0)" fill-opacity="1.0" shape-rendering="crispEdges" /><rect x="100.0" y="100.0" width="100.0" height="100.0" fill="rgb(255,255,255)" fill-opacity="1.0" shape-rendering="crispEdges" /><rect x="520" y="80" width="140" height="140" fill="rgb(0,0,0)" fill-opacity="1.0" shape-rendering="crispEdges" /><rect x="540.0" y="100.0" width="100.0" height="100.0" fill="rgb(255,255,255)" fill-opacity="1.0" shape-rendering="crispEdges" /><rect x="120" y="120" width="60" height="60" fill="rgb(0,0,0)" fill-opacity="1.0" shape-rendering="crispEdges" /><rect x="560" y="120" width="60" height="60" fill="rgb(0,0,0)" fill-opacity="1.0" shape-rendering="crispEdges" /><rect x="80" y="520" width="140" height="140" fill="rgb(0,0,0)" fill-opacity="1.0" shape-rendering="crispEdges" /><rect x="100.0" y="540.0" width="100.0" height="100.0" fill="rgb(255,255,255)" fill-opacity="1.0" shape-rendering="crispEdges" /><rect x="120" y="560" width="60" height="60" fill="rgb(0,0,0)" fill-opacity="1.0" shape-rendering="crispEdges" /></svg></g></svg>